<svg width="79" height="79" viewBox="0 0 79 79" fill="none" xmlns="http://www.w3.org/2000/svg">
<g clip-path="url(#clip0_12_128)">
<path d="M78.5068 -2.33993e-05L0 0.342529L0.342553 78.8493L78.8494 78.5068L78.5068 -2.33993e-05Z" fill="#F1DC50"/>
<path d="M39.4104 36.1535C39.4782 51.6887 39.5163 60.4117 39.5246 62.3225C39.5371 65.1886 37.8427 68.8722 33.0109 68.8932C25.208 68.9273 24.8046 62.3867 24.8046 62.3867M68.1993 44.2583C66.222 40.9608 63.6127 39.3191 60.3714 39.3332C55.3104 39.3553 52.5234 42.6387 52.5377 45.9098C52.552 49.1809 54.2018 52.4449 60.7787 54.0518C64.9639 55.0743 68.9432 57.2873 68.9646 62.194C68.9861 67.1007 64.6902 68.755 60.8154 68.7719C55.8635 68.7935 52.5828 66.6271 50.9735 62.2725" stroke="#333333" stroke-width="2"/>
</g>
<rect x="0.502177" y="0.840343" width="77.5075" height="77.5075" rx="2.5" transform="rotate(-0.25 0.502177 0.840343)" stroke="#DCDCDC"/>
<defs>
<clipPath id="clip0_12_128">
<rect y="0.342529" width="78.5075" height="78.5075" rx="3" transform="rotate(-0.25 0 0.342529)" fill="white"/>
</clipPath>
</defs>
</svg>
