<svg width="18" height="18" viewBox="0 0 18 18" fill="none" xmlns="http://www.w3.org/2000/svg">
<g clip-path="url(#clip0_12_115)">
<path d="M4.18992 5.79077H0.576394C0.41602 5.79077 0.286072 5.92078 0.286072 6.08109V17.6898C0.286072 17.8502 0.41602 17.9801 0.576394 17.9801H4.18992C4.3503 17.9801 4.48025 17.8502 4.48025 17.6898V6.08109C4.48025 5.92078 4.3503 5.79077 4.18992 5.79077Z" fill="black"/>
<path d="M2.38448 0.0198059C1.06966 0.0198059 0 1.08831 0 2.40167C0 3.71561 1.06966 4.78452 2.38448 4.78452C3.69825 4.78452 4.76704 3.71555 4.76704 2.40167C4.7671 1.08831 3.69825 0.0198059 2.38448 0.0198059Z" fill="black"/>
<path d="M13.3812 5.50226C11.9299 5.50226 10.857 6.12616 10.2063 6.83507V6.0811C10.2063 5.92079 10.0764 5.79078 9.91598 5.79078H6.45539C6.29502 5.79078 6.16507 5.92079 6.16507 6.0811V17.6898C6.16507 17.8502 6.29502 17.9801 6.45539 17.9801H10.061C10.2214 17.9801 10.3513 17.8502 10.3513 17.6898V11.9462C10.3513 10.0107 10.8771 9.25671 12.2262 9.25671C13.6956 9.25671 13.8124 10.4655 13.8124 12.0458V17.6899C13.8124 17.8503 13.9423 17.9802 14.1027 17.9802H17.7097C17.8701 17.9802 18 17.8503 18 17.6899V11.3223C18 8.44433 17.4512 5.50226 13.3812 5.50226Z" fill="black"/>
</g>
<defs>
<clipPath id="clip0_12_115">
<rect width="18" height="18" fill="white"/>
</clipPath>
</defs>
</svg>
