<svg width="79" height="79" viewBox="0 0 79 79" fill="none" xmlns="http://www.w3.org/2000/svg">
<g clip-path="url(#clip0_12_149)">
<path d="M78.4838 7.69683e-05L0.023 0.342429C0.0102975 0.342484 4.49315e-05 0.352827 0.000100357 0.365529L0.342452 78.8263C0.342508 78.839 0.35285 78.8493 0.365553 78.8492L78.8264 78.5069C78.8391 78.5068 78.8493 78.4965 78.8493 78.4838L78.5069 0.0229766C78.5068 0.0102741 78.4965 2.15414e-05 78.4838 7.69683e-05Z" fill="#777BB3"/>
<path d="M23.9019 31.2122L15.0085 31.251C14.9089 31.2458 14.8104 31.2731 14.7276 31.3288C14.6449 31.3844 14.5825 31.4655 14.5498 31.5597L10.5042 53.1978C10.5062 53.6578 10.9662 53.6558 10.9662 53.6558L15.5662 53.6357C16.0262 53.6337 16.0249 53.327 16.0249 53.327L17.0748 47.9557L21.2148 47.9376C27.6548 47.9095 30.8561 43.6021 31.606 39.7654C32.3559 35.9288 31.7219 31.1781 23.9019 31.2122ZM25.9313 39.4835C25.3307 42.3995 23.3427 43.6349 20.5827 43.647L17.8227 43.659L19.4739 35.525L22.2339 35.5129C26.3739 35.4949 26.2273 37.0289 25.9313 39.4835Z" fill="black"/>
<path d="M42.3748 47.8453C41.7615 47.848 41.9121 47.234 41.9121 47.234L43.7113 37.8726C43.706 36.6459 44.6206 35.4152 40.9413 35.5846L38.1813 35.5967L35.9335 47.5667C35.9335 47.5667 35.9355 48.0267 35.3221 48.0294L30.8755 48.0488C30.4155 48.0508 30.4135 47.5908 30.4135 47.5908L34.6125 25.952C34.6125 25.952 34.6111 25.6454 35.2245 25.6427L39.8245 25.6226C40.2845 25.6206 40.1331 26.0813 40.1331 26.0813L39.0825 31.2993L43.0692 31.2819C48.5892 31.2578 49.9806 33.8585 49.534 36.9272L47.5868 47.5159C47.5868 47.5159 47.5888 47.9759 46.8222 47.9792L42.3748 47.8453Z" fill="black"/>
<path d="M60.5486 31.0523L51.6552 31.0911C51.5557 31.0859 51.4571 31.1132 51.3744 31.1689C51.2916 31.2245 51.2292 31.3056 51.1966 31.3998L47.1509 53.0379C47.1529 53.4979 47.6129 53.4959 47.6129 53.4959L52.2129 53.4758C52.6729 53.4738 52.6716 53.1671 52.6716 53.1671L53.7215 47.7958L57.8615 47.7777C64.3015 47.7496 67.5028 43.4422 68.2527 39.6055C69.0027 35.7689 68.3686 31.0182 60.5486 31.0523ZM62.5781 39.3236C61.9774 42.2397 59.9894 43.475 57.2294 43.4871L54.4694 43.4991L56.1206 35.3651L58.8807 35.353C63.0207 35.335 62.874 36.869 62.5781 39.3236Z" fill="black"/>
</g>
<rect x="0.502177" y="0.840343" width="77.5075" height="77.5075" rx="2.5" transform="rotate(-0.25 0.502177 0.840343)" stroke="#DCDCDC"/>
<defs>
<clipPath id="clip0_12_149">
<rect y="0.342529" width="78.5075" height="78.5075" rx="3" transform="rotate(-0.25 0 0.342529)" fill="white"/>
</clipPath>
</defs>
</svg>
