<svg width="18" height="18" viewBox="0 0 18 18" fill="none" xmlns="http://www.w3.org/2000/svg">
<g clip-path="url(#clip0_12_109)">
<path d="M17.9647 3.4275C17.2909 3.72421 16.577 3.92006 15.846 4.00875C16.6156 3.54619 17.1918 2.82079 17.4683 1.9665C16.755 2.38275 15.9645 2.68575 15.123 2.8545C14.5678 2.26083 13.8322 1.86707 13.0302 1.73438C12.2283 1.60169 11.405 1.73749 10.6882 2.1207C9.97138 2.5039 9.40114 3.11307 9.06604 3.8536C8.73094 4.59413 8.64972 5.42458 8.835 6.216C5.7675 6.07125 3.05025 4.5975 1.23 2.3715C0.899095 2.93386 0.726498 3.57527 0.7305 4.22775C0.7305 5.51025 1.383 6.6375 2.3715 7.29975C1.78564 7.28111 1.21273 7.12271 0.7005 6.83775V6.88275C0.700168 7.73505 0.994701 8.56121 1.53413 9.22107C2.07356 9.88094 2.82466 10.3339 3.66 10.503C3.11872 10.648 2.55181 10.6698 2.001 10.5668C2.23809 11.3003 2.69825 11.9415 3.31726 12.4009C3.93627 12.8603 4.68326 13.115 5.454 13.1295C4.14865 14.154 2.53686 14.71 0.8775 14.7083C0.585 14.7083 0.29325 14.691 0 14.658C1.69178 15.7412 3.65888 16.3163 5.66775 16.3148C12.4575 16.3148 16.1663 10.6928 16.1663 5.826C16.1663 5.6685 16.1663 5.511 16.155 5.3535C16.8795 4.83215 17.5044 4.18487 18 3.4425L17.9647 3.4275Z" fill="black"/>
</g>
<defs>
<clipPath id="clip0_12_109">
<rect width="18" height="18" fill="white"/>
</clipPath>
</defs>
</svg>
