<svg width="18" height="18" viewBox="0 0 18 18" fill="none" xmlns="http://www.w3.org/2000/svg">
<g clip-path="url(#clip0_12_111)">
<path d="M17.6242 4.65226C17.5199 4.27839 17.3209 3.93775 17.0465 3.66329C16.772 3.38882 16.4314 3.18982 16.0575 3.08551C14.655 2.70976 9.00749 2.70976 9.00749 2.70976C9.00749 2.70976 3.37574 2.70226 1.95824 3.08551C1.58442 3.19 1.24388 3.38917 0.96955 3.66376C0.695218 3.93836 0.496374 4.27909 0.392244 4.65301C0.126151 6.08912 -0.00516953 7.54696 -6.06841e-06 9.00751C-0.00418997 10.4628 0.127127 11.9153 0.392244 13.3463C0.496486 13.72 0.69538 14.0606 0.969705 14.3351C1.24403 14.6095 1.58451 14.8086 1.95824 14.913C3.35999 15.2895 9.00824 15.2895 9.00824 15.2895C9.00824 15.2895 14.6392 15.2895 16.0575 14.913C16.4315 14.8086 16.7721 14.6095 17.0466 14.3349C17.3211 14.0603 17.52 13.7195 17.6242 13.3455C17.8835 11.9143 18.0091 10.462 17.9992 9.00751C18.0102 7.547 17.8846 6.08866 17.6242 4.65151V4.65226ZM7.20599 11.7023V6.30526L11.9055 9.00826L7.20599 11.7023Z" fill="black"/>
</g>
<defs>
<clipPath id="clip0_12_111">
<rect width="18" height="18" fill="white"/>
</clipPath>
</defs>
</svg>
